<svg id="Layer_1" data-name="Layer 1" xmlns="http://www.w3.org/2000/svg" viewBox="0 0 326.51 105.42"><defs><style>.cls-1{fill:#0270b8;}.cls-1,.cls-2{fill-rule:evenodd;}.cls-2{fill:#f5822b;}</style></defs><path class="cls-1" d="M64.53,34.58a18.84,18.84,0,0,0-5.7-4.46,14.59,14.59,0,0,0-6.61-1.45,14.24,14.24,0,0,0-9.57,3.41,14.89,14.89,0,0,0-4.8,9.21c-.55,3.71,0,6.71,1.9,8.91s4.56,3.36,8.21,3.36a19.78,19.78,0,0,0,6.91-1.41A42.56,42.56,0,0,0,63,47.65l-4.4,23.88a49.32,49.32,0,0,1-7.81,2.3,39.24,39.24,0,0,1-7.56.76,35.13,35.13,0,0,1-8.77-1.06,25.54,25.54,0,0,1-7.31-3A26.56,26.56,0,0,1,16.27,58.31a30.73,30.73,0,0,1-1.7-17,38.71,38.71,0,0,1,4.5-13.22,38.31,38.31,0,0,1,8.76-10.66,38,38,0,0,1,12-7.11A40.26,40.26,0,0,1,53.72,7.89a32.87,32.87,0,0,1,7.46.81,27.57,27.57,0,0,1,7,2.4L64.53,34.58ZM96,49.8h9.46l-.8-7.16c-.4-3.65-.65-6.46-.7-8.46a48.49,48.49,0,0,1,.2-5.51h-.35c-.4,1.7-.9,3.56-1.5,5.51s-1.75,4.81-3.26,8.46L96,49.8ZM62.18,72.88,94.58,9.4H120l12.42,63.48H107.89l-.8-8H89.87l-3.2,8Zm76.11,0L148.05,9.4h23.18l-9.71,63.48Z"/><path class="cls-1" d="M279.13,49.8h9.46l-.85-7.16c-.35-3.65-.6-6.46-.65-8.46a48.49,48.49,0,0,1,.2-5.51h-.35c-.35,1.7-.9,3.56-1.5,5.51s-1.75,4.81-3.26,8.46l-3.05,7.16ZM245.28,72.88,277.68,9.4h25.43l12.42,63.48H291l-.79-8H273l-3.2,8Z"/><path class="cls-1" d="M27.23,87.75a9.32,9.32,0,0,0-2.6-2,7.55,7.55,0,0,0-3.05-.6,6.1,6.1,0,0,0-2.61.55,6.62,6.62,0,0,0-2.2,1.5,6.94,6.94,0,0,0-1.45,2.21,8.14,8.14,0,0,0-.5,2.75,7.21,7.21,0,0,0,.3,2.15A7,7,0,0,0,16,96.21a7.36,7.36,0,0,0,2.5,2.21,7.06,7.06,0,0,0,3.21.8,6.63,6.63,0,0,0,3-.7,7.63,7.63,0,0,0,2.55-2v2.66a9.76,9.76,0,0,1-2.7,1.35,10.47,10.47,0,0,1-3,.5,9.12,9.12,0,0,1-2.61-.4,10.6,10.6,0,0,1-2.4-1.15,9.35,9.35,0,0,1-2.8-3.16,8.72,8.72,0,0,1-1-4.1,9,9,0,0,1,.65-3.55,7.43,7.43,0,0,1,2-2.91A9,9,0,0,1,18.22,84a8.71,8.71,0,0,1,3.46-.65,8.87,8.87,0,0,1,2.8.45,9.54,9.54,0,0,1,2.75,1.4v2.6Zm9.17-.25-2.71,6.21H39.1L36.4,87.5Zm0-4.45,7.71,17.57H41.9l-2.2-5.21H33.14l-2.2,5.21h-2.2L36.4,83.05Zm9.86,17.57V83.7h2v16.92Zm4.36,0,5.2-9L51,83.7h2.45L57,90.16l3.46-6.46h2.3L58,91.81l5.35,8.81H61l-4.15-7.31-4,7.31ZM71,87.5l-2.65,6.21h5.36L71,87.5Zm0-4.45,7.71,17.57h-2.2L74.4,95.41H67.79l-2.2,5.21H63.38L71,83.05Z"/><path class="cls-1" d="M87.22,100.62V83.7h8.86v1.85H89.22v4.86h6.86v1.85H89.22v6.46h6.86v1.9Zm25-12.87a9.32,9.32,0,0,0-2.6-2,7.35,7.35,0,0,0-3-.6,6.15,6.15,0,0,0-2.65.55,6.62,6.62,0,0,0-2.2,1.5,7,7,0,0,0-1.46,2.21,8.14,8.14,0,0,0-.45,2.75,9.4,9.4,0,0,0,.25,2.15,6,6,0,0,0,.9,1.85,6.9,6.9,0,0,0,2.46,2.21,7.22,7.22,0,0,0,3.2.8,6.67,6.67,0,0,0,3-.7,7.17,7.17,0,0,0,2.55-2v2.66a9.76,9.76,0,0,1-2.7,1.35,10,10,0,0,1-3,.5,9.1,9.1,0,0,1-2.6-.4,9.34,9.34,0,0,1-2.35-1.15,8.93,8.93,0,0,1-2.86-3.16,8.83,8.83,0,0,1-1-4.1,9,9,0,0,1,.65-3.55,8,8,0,0,1,2-2.91A8.69,8.69,0,0,1,103.24,84a8.41,8.41,0,0,1,3.4-.65,9.24,9.24,0,0,1,2.86.45,10,10,0,0,1,2.7,1.4v2.6Zm10.67,11.42a6.55,6.55,0,0,0,2.6-.55,7.45,7.45,0,0,0,2.3-1.51,6.73,6.73,0,0,0,1.5-2.25,6.93,6.93,0,0,0,.5-2.65,7.09,7.09,0,0,0-.5-2.71,6.83,6.83,0,0,0-1.5-2.25,5.93,5.93,0,0,0-2.25-1.5,6.15,6.15,0,0,0-2.65-.55,6.24,6.24,0,0,0-2.71.55,5.77,5.77,0,0,0-2.2,1.5,6.83,6.83,0,0,0-1.5,2.25,7.13,7.13,0,0,0-.55,2.71,7,7,0,0,0,.55,2.65,8,8,0,0,0,1.5,2.25,7.24,7.24,0,0,0,2.25,1.51,6.81,6.81,0,0,0,2.66.55Zm9-7a8.75,8.75,0,0,1-.65,3.4,9.13,9.13,0,0,1-2,2.86,9.63,9.63,0,0,1-3,1.9,9.24,9.24,0,0,1-3.45.7,9.06,9.06,0,0,1-3.46-.7,9.63,9.63,0,0,1-3-1.9,9,9,0,0,1-2-2.86,8.75,8.75,0,0,1-.65-3.4,9.05,9.05,0,0,1,.65-3.46,8.92,8.92,0,0,1,2-2.85,9.63,9.63,0,0,1,3-1.9,9.51,9.51,0,0,1,6.91,0,9.63,9.63,0,0,1,3,1.9,9.09,9.09,0,0,1,2,2.85,8.88,8.88,0,0,1,.65,3.46Zm2.25,8.41V83.05L146.5,96.56V83.7h1.9v17.57L136,87.9v12.72Zm25.53-1.45a6.81,6.81,0,0,0,2.66-.55,7,7,0,0,0,3.75-3.76,7,7,0,0,0,.55-2.65,7.13,7.13,0,0,0-.55-2.71,6.83,6.83,0,0,0-1.5-2.25,5.57,5.57,0,0,0-2.25-1.5,5.88,5.88,0,0,0-2.66-.55,6.15,6.15,0,0,0-2.65.55,5.1,5.1,0,0,0-2.2,1.5,6.27,6.27,0,0,0-1.55,2.25,7.09,7.09,0,0,0-.5,2.71,6.93,6.93,0,0,0,.5,2.65,7.27,7.27,0,0,0,1.55,2.25,6.7,6.7,0,0,0,2.25,1.51,6.55,6.55,0,0,0,2.6.55Zm9.07-7a8.8,8.8,0,0,1-.7,3.4,9.26,9.26,0,0,1-8.37,5.46,8.8,8.8,0,0,1-3.4-.7,9.07,9.07,0,0,1-2.95-1.9,7.72,7.72,0,0,1-2-2.86,8,8,0,0,1-.7-3.4,8.24,8.24,0,0,1,.7-3.46,7.69,7.69,0,0,1,2-2.85,9.07,9.07,0,0,1,2.95-1.9,8.75,8.75,0,0,1,3.4-.65,8.92,8.92,0,0,1,6.41,2.55,9.09,9.09,0,0,1,2,2.85,8.91,8.91,0,0,1,.7,3.46ZM156.26,82.05l2.3-4h2.26l2.25,4h-1.4l-2-2.66-2,2.66Zm22.58,19.22-5.26-12.16-2.1,11.51h-1.95l3.4-17.57,5.91,14,5.91-14,3.41,17.57h-2l-2.15-11.51-5.21,12.16Zm10.92-.65V83.7h2v16.92Zm18.77-12.87a9.13,9.13,0,0,0-2.55-2,7.73,7.73,0,0,0-3.06-.6,5.94,5.94,0,0,0-2.6.55,6.82,6.82,0,0,0-3.65,3.71,7.09,7.09,0,0,0-.51,2.75,7.2,7.2,0,0,0,.31,2.15,5.7,5.7,0,0,0,.85,1.85,6.93,6.93,0,0,0,2.5,2.21,7.05,7.05,0,0,0,3.2.8,7,7,0,0,0,3-.7,7.47,7.47,0,0,0,2.5-2v2.66a9.76,9.76,0,0,1-2.7,1.35,9.93,9.93,0,0,1-3,.5,9.39,9.39,0,0,1-2.61-.4,11.35,11.35,0,0,1-2.35-1.15,8.75,8.75,0,0,1-3.81-7.26,9,9,0,0,1,.65-3.55A8.93,8.93,0,0,1,199.57,84,8.66,8.66,0,0,1,203,83.3a8.93,8.93,0,0,1,2.81.45,10,10,0,0,1,2.7,1.4v2.6Zm7.76-.25-2.7,6.21H219l-2.71-6.21Zm0-4.45L224,100.62H221.8l-2.2-5.21H213l-2.16,5.21h-2.2l7.66-17.57Z"/><path class="cls-1" d="M232.26,100.62V83.7h8.92v1.85h-6.91v4.86h6.91v1.85h-6.91v8.36Zm11.47,0V83.7h8.91v1.85h-6.91v4.86h6.91v1.85h-6.91v6.46h6.91v1.9Zm13.82-1.9h1.25a20.14,20.14,0,0,0,4.31-.3,4.11,4.11,0,0,0,2-.9,5.39,5.39,0,0,0,1.6-2.26,8.57,8.57,0,0,0,.55-3.1,8.15,8.15,0,0,0-.55-3.1,5.59,5.59,0,0,0-1.6-2.26,4.66,4.66,0,0,0-2-1,22.16,22.16,0,0,0-4.31-.25h-1.25V98.72Zm-2.05,1.9V83.7h3.25a22.65,22.65,0,0,1,5.06.4,6.79,6.79,0,0,1,4.8,4.05,11.81,11.81,0,0,1,0,8,7.34,7.34,0,0,1-2.2,2.86,7.49,7.49,0,0,1-2.55,1.2,18.26,18.26,0,0,1-4.36.4h-4Zm16.62,0V83.7H281v1.85h-6.91v4.86H281v1.85h-6.91v6.46H281v1.9Zm11.77,0V83.7h4a13.16,13.16,0,0,1,2.45.2,4.07,4.07,0,0,1,1.41.65,3.77,3.77,0,0,1,1.15,1.6,5,5,0,0,1,.4,2.15,4,4,0,0,1-1.15,3.16,4.67,4.67,0,0,1-3.41,1.1h-.35l6.46,8.06H292.3l-6.16-8.06h-.3v8.06Zm1.95-15.22v5.66h1.55a5.8,5.8,0,0,0,3.16-.6,2.44,2.44,0,0,0,.79-2.11,3,3,0,0,0-.79-2.3,5.71,5.71,0,0,0-3.16-.65Zm15.52,2.1-2.7,6.21h5.4l-2.7-6.21Zm0-4.45L309,100.62h-2.15l-2.21-5.21h-6.61l-2.2,5.21H293.7l7.66-17.57Zm8.91,17.57V83.7h2v15h6.36v2Z"/><polygon class="cls-1" points="240.38 73.78 211.99 73.78 195.66 42.69 224.05 42.69 240.38 73.78 240.38 73.78"/><polygon class="cls-2" points="255.7 8.54 227.31 8.54 198.02 39.64 226.41 39.64 255.7 8.54 255.7 8.54"/><polygon class="cls-1" points="181.5 8.54 209.88 8.54 226.21 39.64 197.82 39.64 181.5 8.54 181.5 8.54"/><polygon class="cls-2" points="166.13 73.78 194.56 73.78 223.85 42.69 195.46 42.69 166.13 73.78 166.13 73.78"/></svg>