<svg id="Layer_1" data-name="Layer 1" xmlns="http://www.w3.org/2000/svg" viewBox="0 0 146.66 56.16"><defs><style>.cls-1{fill:#3fad57;fill-rule:evenodd;}</style></defs><path class="cls-1" d="M33.13,5.56H46.65V19H33.13Zm2.31,2.33h8.89v8.78H35.44ZM37.56,10h4.63v4.6H37.56ZM10.77,12.82h7.32A10.91,10.91,0,0,1,29,23.67h0A10.91,10.91,0,0,1,18.09,34.5H10.77v8.34H3.68V18.12h7.09Zm0,5.33v11h6a5.53,5.53,0,0,0,5.58-5.5h0a5.54,5.54,0,0,0-5.58-5.52Zm22.36,5.44h7.06V42.84H33.13ZM77.9,12.82h7.32A10.91,10.91,0,0,1,96.14,23.67h0A10.91,10.91,0,0,1,85.22,34.5H77.9v8.34H70.81V18.12H77.9Zm0,5.33v11h6a5.55,5.55,0,0,0,5.58-5.5h0a5.56,5.56,0,0,0-5.58-5.52ZM56.66,19.51a12.3,12.3,0,0,1,9.8,4.79l-3.83,3.83a6.16,6.16,0,0,0-5.37-3.35,6.41,6.41,0,0,0-6.21,6.58,6.4,6.4,0,0,0,6.21,6.57,6.17,6.17,0,0,0,5.37-3.34l3.83,3.8a12.23,12.23,0,0,1-9.8,4.82A12.06,12.06,0,0,1,44.42,31.36,12.05,12.05,0,0,1,56.66,19.51ZM127,51.74h7l12.72-31.95h-6.95l-5.83,14.66-5.83-14.66h-7l9.32,23.39Zm-7.58-9.38H113V40.57c-7.63,5-14,1.7-14.78-3.18-.86-5.44,2.46-9.38,15.44-8.3,0-4.9-7.35-5.53-12.33-2.1L99,22.4c9.15-4.85,20.38-3.35,20.41,4.7Zm-5.57-9.61h-5.49c-5.46,0-4.26,7,1,6,2.69-.57,4.35-2.35,4.52-6Z"/></svg>